<?xml version="1.0" encoding="UTF-8"?>
<svg id="Layer_2" xmlns="http://www.w3.org/2000/svg" viewBox="0 0 208.5 235.34">
  <defs>
    <style>
      .cls-1, .cls-2 {
        fill: #ac82bc;
      }

      .cls-3 {
        fill: #ac82bc;
        stroke-width: 9px;
      }

      .cls-3, .cls-2 {
        stroke: #ac82bc;
        stroke-miterlimit: 10;
      }

      .cls-4 {
        fill: #3f3d56;
      }

      .cls-2 {
        stroke-width: 8px;
      }
    </style>
  </defs>
  <g id="b68b2dea-431f-4b15-9350-961d32a371b9">
    <rect id="rect889" class="cls-2" x="37.41" y="21.14" width="9.6" height="28" transform="translate(-11.98 44.11) rotate(-49.17)"/>
    <rect id="rect891" class="cls-2" x="172.14" y="151.51" width="9.6" height="24.8" transform="translate(-62.77 190.63) rotate(-49.17)"/>
    <path id="path893" class="cls-4" d="M208.5,94.19v.6c0,1.4,0,2.8-.2,4.2-2.6,51.8-46.8,91.8-98.8,89.2-47.8-2.4-86-40.2-89.2-88-.2-2-.2-4-.2-6,0-19.4,6-38.4,17.2-54.4,1-1.2,1.8-2.6,2.8-3.8.6-.8,1.4-1.6,2-2.6C75.1-5.81,133.5-11.21,173.3,20.99c1.2,1,2.2,1.8,3.4,2.8.8.8,1.8,1.6,2.6,2.4,16.6,15.8,26.8,37.2,28.6,60,.4,2.6.6,5.2.6,8h0Z"/>
    <path id="path895" class="cls-3" d="M110.5,203.99c-58.4,0-106-47.6-106-106,0-26.8,10-52.4,28.2-72l2.4,2.2C17.5,47.19,7.7,72.19,7.7,97.99c0,56.6,46,102.8,102.8,102.8,27.8,0,54.4-11.2,73.8-31.2l2.2,2.2c-20,20.8-47.4,32.4-76,32.2h0Z"/>
    <rect id="rect897" class="cls-1" x="98.9" y="201.79" width="26.8" height="26.8"/>
    <path id="path899" class="cls-1" d="M40.5,35.99h0c.6.4,0,1.2,0,2s1.2,1,2,1.2c.8,0,2,.8,1.6,1.6-2.2.8-4.4,0-6.4-.8-11.2,15.8-17.4,34.8-17.2,54.4,0,2,0,4,.2,6,.2.2.4.2.6.4.6.2,1.4.2,2,.6.4.2.8.8,1.2,1,1.4.8,3.2-.6,4.4.2.4.2.6.6,1,1,1.2,1,3,.4,4.4,1,.8.4,1.2,1.4,1.8,2.4,1.2,2.2,3,4.4,5.4,4.4h2.4c.8.2,1.4.8,1.4,1.6-.2,1.4.4,2.8.2,4-.4,2.4-3.8,3.4-4,5.8v1.6c-.2.6-.6,1.2-.8,1.8-.4,1.2.6,2.4,1.4,3.2,1,.8,2,1.4,2.6,2.6.6,1.2.2,2.6.4,3.8.4,2.8,2.8,4.8,5.4,6.2.8.4,1.6.8,2,1.6.6,1,.6,2.2.8,3.2.6,2.8,2.8,5,2.8,7.6,0,2-1,3.8-1.6,5.6-.6,2-.8,4-.6,6,3.6,3,7.6,6,11.6,8.4.2-.4.4-.6.4-1,.2-.8-.2-1.8-1-2.2.6-.2,1.4-.6,1.8-1.2.6-.6.6-1.4.4-2,1.2.2,2.4.2,3.2-.6.6-.6.6-1.8.4-2.6-.4-.8-.6-1.8-.6-2.6,2.6.2,5.2,0,7.8-.2-.4-1.2-1.2-2.4-2.4-3,1.2-.2,2.2-1.6,2.6-2.8.4-1.2.4-2.4,0-3.6,0-.2-.2-.6,0-1s.6-.8,1-1c2-1.2,3.8-2.2,5.8-3.4.4-.2.6-.4,1-.6.6-.8.6-1.8.2-2.6s-.8-1.8-1-2.6c-.4-2.8,2.6-4.8,3.6-7.4.4-1,.6-2.2.6-3.2,0-1.2,0-2.6-.8-3.4-.8-.8-2.2-.6-3.2-1.2-.8-.6-1.2-1.8-2-2.4-.8-.4-1.8-.2-2.8-.4-1.6-.4-2.6-2.2-4.4-2.4-1-.2-2,.4-2.8-.2-.6-.4-.8-1.4-.8-2.2-.4-2.6-2.6-4.6-5.2-5.2-1-.2-2,0-2.8-.6s-1.2-1.6-1.8-2.2c-1-1.2-2.8-1.6-4.2-2-2.2-.4-4.2-1-6.4-1.4-1.2-.2-2.6-.4-3.2.6-.2.4-.4.8-.4,1.2-.4,1.6-1.8,2.6-3.4,2.6-.6-1-1.4-1.6-2.4-1.8-.6-.2-1.4-.2-2-.4-1.4-.6-2-2.2-1.2-3.6v-.2c.8-1.4.6-3-.6-4-1-1-2.6-1.2-4-1.2-.4-.8.2-1.8,1-2.4.6-.6,1.6-1.2,1.6-2,.2-1.4-1.6-2.4-3-2s-2.2,1.8-2.8,3c-.2.8-.6,1.6-1.2,2.2-.4.6-1.4,1-2.2.8-1.2-.2-1.6-1.6-1.8-2.8-.4-1.6-.6-3-.6-4.6s.6-3,1.8-4.2c1.8-1.8,4.8-1.6,7.2-1.2-.6-.8-.4-1.8.2-2.4s1.6-.8,2.6-.6c.8.2,1.4.6,2,1.2.8.8,1,2,1.4,3,.6,1,1.8,1.8,2.8,1.4.8-.4,1-1.6.8-2.6s-.6-1.8-.6-2.8c.2-1.8,2-3,3.8-3.8s3.6-1.8,4-3.6c0-.4,0-.8.2-1,.2-.4.4-.6.8-.8,5-3.2,10-6.6,15.6-8.4h.6c.4-.2.2-1-.2-1.2s-1-.4-1-1c0-.4.2-.6.2-1,0-.8-.6-1.4-1.2-1.4h-.4c-.4-.6.4-1.2,1.2-1.6,2.2-.6,4.4-1,6.6-1,.2,0,.6,0,.8.2.4.4.4.8,0,1.2l-1,1c-.8.8-1,1.8-.8,2.8,1.2.6,2.4,1.2,3.8,1,1.4-.2,2.4-1.6,1.8-2.8-.6-1-2.2-1.4-2.6-2.6-.4-1.4,1.6-2.6,1.2-4-.2-.6-.8-1-1.2-1.4-1.2-1-1.4-2.8-.8-4.2-1.6.2-3-.2-4.2-1.4-1-1-1.8-2.6-3.2-2.6-1.2,0-2.4,1.6-3.6,1-.4-.2-.6-.4-1-.2-.2.2-.4.4-.4.6-.4,1.4.2,3.2-.6,4.4-.8,1.4-3,1.6-4,2.8-.6.6-.8,1.6-1.4,2.4s-1.6,1.2-2.2.6c.6-1.4.2-3-.8-3.8-.6-.4-1.2-.6-1.8-1-.8-.4-1.4-.8-2.2-1.2-.4-.2-.6-.4-.8-.8s-.2-.8,0-1.4c.6-1.8,2.4-3.2,4.2-3.6.8-.2,1.8,0,2.4-.8.2-.4.4-.8.8-1h.8c1,.4,2.2.8,3.2,1.2.4.2.8.2,1.2.2s.6-.4.6-.8c-.2-.6-1-.8-.8-1.4,0-.2.2-.4.2-.4,2.4-2.4,5.6-3.8,9-3.6.4.6-.2,1.4-.8,2s-1,1.6-.4,2c.2.2.6.2.8.2.8.2,1.6.4,2.2.6,1,.4,2.2,1,3.2,1.6-.2-.6-.2-1.4,0-2s1-1,1.6-1c.6.2,1,1,1.6,1.2.8.2,1.2-1.2.8-2s-1.2-1.4-1.2-2.4c0-.6.2-1.4-.2-1.8-.2-.2-.4-.2-.6-.2-4-.8-8-1.4-12-2.2-.8-.2-1.8,0-1.8.6,0,.4.4.8.2,1.2-.2.4-.8.4-1.2.6-.6.2-1,1-.8,1.6s.4,1.2.8,1.8c-.8-.4-2-.4-2.8-.8-.2-1-.4-1.8-.6-2.6,0-.6-.6-.8-1-.8h-.2c-1,.2-2,.4-3.2.4-.2,0-.6.2-.8.2-.4.4,0,1.2,0,1.8s-.6,1.2-1.2,1.4c-.6.2-1.4.2-2,0-1.4-.2-2.8-.4-4.4-.6,1.2-.4,2.4-1.2,3.2-2.2.6-.6.8-2,0-2.2h-.8c-2,0-3.6-1.6-5.4-2.4-.6-.2-1.2-.4-1.8-.4l-1.6,2.4Z"/>
    <path id="path901" class="cls-1" d="M208.3,98.99c-.4.6-1.2,1-2,1-2-.2-2.8-3-4.8-3.4h-.6c-.2.2-.4.6-.4.8,0,1.6-.2,3.4.4,4.8,1,2.2,3.4,4,2.8,6.4-2.8-1.2-4.2-4.4-4.8-7.4s-.8-6-2-8.8c-.8,1.2-2.8.2-3.6-1s-1.2-2.4-2-3.6c-.8-1.2-1.8-2.2-3.2-2.2s-2.6,1-3.8,1.8c-1,.6-1.8,1.6-2.4,2.6-.8,1.6-.6,3.4-.6,5,0,1.8-.4,3.8-1.6,5.2-1.2,1.4-3.6,1.8-5,.6-.6-.8-1.2-1.6-1.4-2.6-1.6-4.4-2.8-8.8-3.8-13.4-.2,1-1.2,2.4-2,1.8-.2-.2-.4-.4-.4-.6-1.6-2.8-4.6-4.4-7.6-5.4s-6.2-1.4-9.2-2.6c-1.6-.6-3.2-1.4-4.8-2.4-.8,1.2-.8,2.6-.2,3.8s2.2,1.8,3.4,1.4c.6-.2,1.2-.6,1.8-1,.6-.2,1.6-.2,1.8.6.2.6-.2,1.4,0,2,.4,1,1.8,1,2.2,2,.4.8.2,1.6-.4,2-.6.4-1.2.8-2,1.2-2.2,1.2-3.6,3.2-5.6,4.8-1.8,1.6-4.6,2.8-6.8,1.8.6-2.8-2.6-4.6-3.2-7.4-.2-.8,0-1.8-.4-2.6-.4-1.2-1.6-2.2-2.4-3-2.2-2.4-3.4-5.4-3.2-8.8,0-1.2.2-2.2,0-3.4-.2-1-1.2-2.2-2.2-2-2.6.2-5.8.4-7-1.8-.4-.8-.6-2,0-2.6.6-.4,1.2-.4,1.8-.4,2,.2,3.8.4,5.8.6,1.4.2,2.8.2,4-.4,1.2-.6,1.6-2.6.6-3.4-.8-.6-2.2-.6-2.4-1.6-.2-.8.6-1.8.2-2.4-.4-.4-1.2-.4-1.6,0-.4.4-.8.8-1.4,1.2-1,.4-2,0-3-.2-1-.4-2.4-.4-2.8.6-.6,1,.4,2.4,0,3.4-.8,1.4-3,.6-4,1.8-1.2,1.4.8,3.4.4,5-1,.4-2.2.4-3-.2-1-.6-1.4-1.6-1.2-2.8,0-.8.4-1.6.2-2.2-.2-.6-.8-1-1.4-1.2-1.8-1-3.8-2-5.6-3-.6,1,.2,2.2,1,2.8.8.8,1.8,1.2,2.4,2.2.8,1.4.2,3-1,3.8-.2.2-.4.2-.6,0-.2-.2-.4-.2-.4-.4-1-2.6-2.4-5-4.8-6.4-2.4-1.4-5.8-1-7.2,1.2-.4.6-.6,1.2-1,1.6-1.6,3-5.4,4.4-8.8,4.2-.4,0-.6,0-1-.2-.6-.4-.6-1.2-.4-1.8.2-1,.2-1.8.4-2.8,0-.6.2-1.2.6-1.6.6-.4,1.6-.2,2.4-.2,1.2,0,2.4-.8,2.6-2,.4-1.2,0-2.4-1-3.4-.4-.4-.8-.8-.6-1.2.2-.2.4-.4.8-.4,1.4-.4,3-.6,4.4-1s2.8-1.6,3.2-3c.2-.4.2-1,.6-1.2.2,0,.4-.2.6-.2,1.6-.2,2.8-1.6,2.6-3.2.6-.4,1.6-.2,2.2.4.6.6,1.2,1.2,2,1.4,1.4.4,3-1,4.4-1,.6,0,1.4.2,2,0s1-.8,1.4-1.2c.4-.4,1.4-.8,1.8-.2-.2-1-.2-1.8-.4-2.8,1.6.4,3.2,0,4.4-.8-1.6-.6-3.2-1-4.8-1.6-.2,0-.4-.2-.4-.2-.4-.4,0-1,.2-1.4.6-1,.8-2.8-.4-3.2-.8-.4-1.6,0-2.4.4-1.2.6-2.4,1.4-3.6,2-.2.6.8,1,1.2,1.6.8.8,1,2,.2,2.8-.4.4-1,.6-1.6.6.4.6.6,1.4.4,2.2-.8,0-1.6.2-2.4.2-.2,0-.6,0-.8-.2s-.2-.6-.2-1c-.2-.8-1-1.4-1.8-1.6-.8,0-1.6,0-2.4.2-.4.2-.8.2-1,0s-.4-.4-.4-.6c-.2-.8,0-1.8.6-2.6.6-.6,1.2-1.4,2-1.8,1.6-1.4,2.8-3.4,3.6-5.4,1.4-.6,2.6-1.2,4-1.8,1-.4,2.2-.8,3.2-1.2,1-.2,2.2-.2,3.2-.2h4.4c1.4,0,2.6.2,3.8.6s2.2,1.6,2.4,2.8c0,.4,0,.6-.2.8-.2,0-.4.2-.6.2-1.2,0-1.8.4-3,.4.8.8,1.6,1.6,2.8,1.8,2,.2,3.4-1.8,4.4-3.6,0,1,.8,1.6,1.8,1.6.4,0,1-.2,1.4-.6,4-2.2,8.4-3.2,12.8-3.4,0-.8.4-1.4,1-1.6,1-.2,1.8.6,2.2,1.4s.8,1.8,1.4,2.4c.6.6,2,.6,2.4-.4.2-.8-.6-1.6-1.4-2-.8-.4-1.6-1.4-1-2.2,3.8-.8,7.6-1.6,11.4-1.8.6,0,1.4,0,2-.4.6-.2,1-1,.8-1.6-1.8.4-3.6-.2-4.6-1.8,4-.4,8.2-.6,12,.2l3.4,2.8c-.6.6-1.4,1.2-1,2,.4.4.8.4,1.2.4h2.4c16.6,15.8,26.8,37.2,28.6,60-1.4,0-2.6,1.6-2.4,3.2.2,1.8,1.4,3.2,2.4,4.6.2.2.2.4.4.8l.2,5.2Z"/>
    <path class="cls-1" d="M84.7,76.79c2-2.4,5.4-4.4,7.8-4.4s5.4-1,8.2,1,2.4-1,4.8-2c2.4-1,4.8,1.4,5.8,3.4s3.4,3.4,5.8,2.8c2.4-.4,3.4-1.4,6.8-2,3.4-.4,7.8-6.4,7.2-3.2s6.2,8,3.2,8.8-1,.2-1.8,4.6c-1,4.4,1,2.8,2,5.8,1,2.8,2.8,6.8,6.2,6.2,3.4-.4,5.4-1.4,5.4,2.4s0,5.8-2,8.6-4.8,4.4-3.8,7.8c1,3.4-1,5.8.4,9.2s1.4,5.8,2,9.6c.4,3.8-1,1-2.4,4.8s-4.4,5.8-4.8,8.2,1.4,6.8-2.4,6.2-10.2,1.4-13.6-2.4c-3.4-3.8-6.2-2-5.4-6.8,1-4.8-2-6.2-2-10.6s-1-7-.4-11.2c.4-3.8.4-4.8.4-8.6s2,.4-2-4.8c-3.8-5.4-2.8-3.4-6.2-3.4s-3.4-1.4-7.8-2-13,2.8-15.4-.4c-2.4-3.4-3.4-3.8-3.8-6.2s-2-4.4-2.4-7.2.4-2.8,2-7.2c1.4-4.4,2.4-5.4,3.8-6.2"/>
    <path class="cls-1" d="M153.7,130.39c-2,2.8-6.2,8.6-3.8,9.2,5.4,1.4,4.8-.4,6.2-2.8,1.4-2.4,3.4-3.4,1.4-5.8s-2-2.4-2-2.4h0"/>
    <rect class="cls-1" x="66" y="225.34" width="93" height="10"/>
  </g>
</svg>